<svg width="149" height="40" viewBox="0 0 149 40" fill="none" xmlns="http://www.w3.org/2000/svg">
<path d="M36.81 26.19V11.94L37.71 12V26.19C37.71 27.25 37.93 28.09 38.37 28.71C38.81 29.33 39.42 29.64 40.2 29.64C40.24 29.64 40.26 29.7 40.26 29.82C40.26 29.94 40.24 30 40.2 30C39.76 30 39.3 29.99 38.82 29.97C38.36 29.95 37.85 29.94 37.29 29.94C36.69 29.94 36.1 29.95 35.52 29.97C34.96 29.99 34.44 30 33.96 30C33.9 30 33.87 29.94 33.87 29.82C33.87 29.7 33.9 29.64 33.96 29.64C34.84 29.64 35.53 29.33 36.03 28.71C36.55 28.09 36.81 27.25 36.81 26.19ZM52.11 30.45C52.11 30.51 52.06 30.54 51.96 30.54C51.88 30.56 51.82 30.56 51.78 30.54L36.99 13.71C36.27 12.89 35.66 12.34 35.16 12.06C34.66 11.76 34.16 11.61 33.66 11.61C33.62 11.61 33.6 11.55 33.6 11.43C33.6 11.31 33.62 11.25 33.66 11.25C34.06 11.25 34.47 11.26 34.89 11.28C35.31 11.3 35.7 11.31 36.06 11.31C36.78 11.31 37.43 11.3 38.01 11.28C38.59 11.26 39.04 11.25 39.36 11.25C39.62 11.25 39.81 11.37 39.93 11.61C40.07 11.83 40.38 12.23 40.86 12.81L51.87 25.5L52.11 30.45ZM52.11 15.09V30.45L51.24 29.55V15.09C51.24 14.03 51.02 13.19 50.58 12.57C50.14 11.93 49.53 11.61 48.75 11.61C48.71 11.61 48.69 11.55 48.69 11.43C48.69 11.31 48.71 11.25 48.75 11.25C49.19 11.25 49.64 11.27 50.1 11.31C50.58 11.33 51.1 11.34 51.66 11.34C52.2 11.34 52.73 11.33 53.25 11.31C53.77 11.27 54.25 11.25 54.69 11.25C54.73 11.25 54.75 11.31 54.75 11.43C54.75 11.55 54.73 11.61 54.69 11.61C53.89 11.61 53.26 11.93 52.8 12.57C52.34 13.19 52.11 14.03 52.11 15.09ZM61.7205 11.94C60.5005 11.94 59.4605 12.35 58.6005 13.17C57.7605 13.97 57.0905 15.11 56.5905 16.59C56.5705 16.65 56.5105 16.68 56.4105 16.68C56.3105 16.66 56.2605 16.62 56.2605 16.56C56.3005 16.28 56.3405 15.89 56.3805 15.39C56.4205 14.87 56.4605 14.31 56.5005 13.71C56.5605 13.11 56.6005 12.53 56.6205 11.97C56.6605 11.41 56.6805 10.95 56.6805 10.59C56.6805 10.49 56.7305 10.44 56.8305 10.44C56.9505 10.44 57.0105 10.49 57.0105 10.59C57.0105 10.79 57.1105 10.94 57.3105 11.04C57.5305 11.12 57.7705 11.18 58.0305 11.22C58.3105 11.24 58.5405 11.25 58.7205 11.25C60.4405 11.31 62.4505 11.34 64.7505 11.34C66.1505 11.34 67.2705 11.33 68.1105 11.31C68.9505 11.27 69.7605 11.25 70.5405 11.25C71.2605 11.25 71.8005 11.21 72.1605 11.13C72.5405 11.03 72.7805 10.82 72.8805 10.5C72.9005 10.42 72.9605 10.38 73.0605 10.38C73.1805 10.38 73.2405 10.42 73.2405 10.5C73.2005 10.82 73.1605 11.27 73.1205 11.85C73.1005 12.41 73.0705 13.01 73.0305 13.65C73.0105 14.27 72.9905 14.85 72.9705 15.39C72.9505 15.91 72.9405 16.3 72.9405 16.56C72.9405 16.62 72.8905 16.65 72.7905 16.65C72.6905 16.65 72.6305 16.62 72.6105 16.56C72.3105 14.98 71.7405 13.82 70.9005 13.08C70.0805 12.32 69.0805 11.94 67.9005 11.94C67.5005 11.94 67.1905 12 66.9705 12.12C66.7705 12.22 66.6305 12.4 66.5505 12.66C66.4905 12.92 66.4605 13.28 66.4605 13.74V27.57C66.4605 28.15 66.5205 28.59 66.6405 28.89C66.7605 29.19 66.9905 29.39 67.3305 29.49C67.6905 29.59 68.2305 29.64 68.9505 29.64C69.0105 29.64 69.0405 29.7 69.0405 29.82C69.0405 29.94 69.0105 30 68.9505 30C68.3905 30 67.7605 29.99 67.0605 29.97C66.3605 29.95 65.5905 29.94 64.7505 29.94C63.9505 29.94 63.2005 29.95 62.5005 29.97C61.8005 29.99 61.1605 30 60.5805 30C60.5205 30 60.4905 29.94 60.4905 29.82C60.4905 29.7 60.5205 29.64 60.5805 29.64C61.2805 29.64 61.8105 29.59 62.1705 29.49C62.5305 29.39 62.7705 29.19 62.8905 28.89C63.0305 28.59 63.1005 28.15 63.1005 27.57V13.68C63.1005 13.24 63.0605 12.9 62.9805 12.66C62.9205 12.4 62.7905 12.22 62.5905 12.12C62.3905 12 62.1005 11.94 61.7205 11.94ZM81.1479 27.57C81.1479 28.15 81.1979 28.59 81.2979 28.89C81.3979 29.19 81.5979 29.39 81.8979 29.49C82.1979 29.59 82.6579 29.64 83.2779 29.64C83.3379 29.64 83.3679 29.7 83.3679 29.82C83.3679 29.94 83.3379 30 83.2779 30C82.7579 30 82.1779 29.99 81.5379 29.97C80.8979 29.95 80.1979 29.94 79.4379 29.94C78.7179 29.94 78.0279 29.95 77.3679 29.97C76.7079 29.99 76.1179 30 75.5979 30C75.5579 30 75.5379 29.94 75.5379 29.82C75.5379 29.7 75.5579 29.64 75.5979 29.64C76.2179 29.64 76.6779 29.59 76.9779 29.49C77.2979 29.39 77.5079 29.19 77.6079 28.89C77.7279 28.59 77.7879 28.15 77.7879 27.57V13.68C77.7879 13.1 77.7279 12.67 77.6079 12.39C77.5079 12.09 77.2979 11.89 76.9779 11.79C76.6779 11.67 76.2179 11.61 75.5979 11.61C75.5579 11.61 75.5379 11.55 75.5379 11.43C75.5379 11.31 75.5579 11.25 75.5979 11.25C76.1179 11.25 76.7079 11.27 77.3679 11.31C78.0279 11.33 78.7179 11.34 79.4379 11.34C80.1979 11.34 80.8979 11.33 81.5379 11.31C82.1979 11.27 82.7779 11.25 83.2779 11.25C83.3379 11.25 83.3679 11.31 83.3679 11.43C83.3679 11.55 83.3379 11.61 83.2779 11.61C82.6779 11.61 82.2179 11.67 81.8979 11.79C81.5979 11.91 81.3979 12.12 81.2979 12.42C81.1979 12.72 81.1479 13.16 81.1479 13.74V27.57ZM96.3218 29.97L100.732 29.19C101.132 29.47 101.772 29.89 102.652 30.45C103.532 31.01 104.582 31.62 105.802 32.28C107.042 32.94 108.402 33.57 109.882 34.17C111.382 34.79 112.962 35.29 114.622 35.67C116.282 36.07 117.972 36.27 119.692 36.27C120.172 36.27 120.522 36.26 120.742 36.24C120.982 36.22 121.212 36.2 121.432 36.18C121.492 36.16 121.532 36.2 121.552 36.3C121.592 36.4 121.592 36.46 121.552 36.48C121.092 36.58 120.572 36.67 119.992 36.75C119.432 36.83 118.732 36.87 117.892 36.87C115.392 36.87 112.872 36.56 110.332 35.94C107.812 35.34 105.362 34.52 102.982 33.48C100.602 32.44 98.3818 31.27 96.3218 29.97ZM95.5718 30.36C94.1318 30.36 92.8218 30.11 91.6418 29.61C90.4818 29.09 89.4818 28.38 88.6418 27.48C87.8218 26.58 87.1818 25.55 86.7218 24.39C86.2818 23.21 86.0618 21.96 86.0618 20.64C86.0618 19.02 86.3718 17.6 86.9918 16.38C87.6318 15.16 88.4718 14.15 89.5118 13.35C90.5518 12.53 91.6918 11.92 92.9318 11.52C94.1718 11.12 95.4018 10.92 96.6218 10.92C98.1018 10.92 99.4218 11.19 100.582 11.73C101.762 12.25 102.762 12.96 103.582 13.86C104.402 14.76 105.022 15.78 105.442 16.92C105.882 18.06 106.102 19.23 106.102 20.43C106.102 21.83 105.822 23.13 105.262 24.33C104.702 25.53 103.932 26.58 102.952 27.48C101.992 28.38 100.872 29.09 99.5918 29.61C98.3318 30.11 96.9918 30.36 95.5718 30.36ZM96.5618 29.61C97.6818 29.61 98.6818 29.29 99.5618 28.65C100.442 28.01 101.132 27.07 101.632 25.83C102.152 24.59 102.412 23.08 102.412 21.3C102.412 19.46 102.132 17.82 101.572 16.38C101.012 14.94 100.212 13.81 99.1718 12.99C98.1318 12.15 96.8818 11.73 95.4218 11.73C93.6018 11.73 92.2018 12.42 91.2218 13.8C90.2418 15.18 89.7518 17.09 89.7518 19.53C89.7518 20.99 89.9218 22.34 90.2618 23.58C90.6018 24.8 91.0718 25.87 91.6718 26.79C92.2918 27.69 93.0118 28.39 93.8318 28.89C94.6718 29.37 95.5818 29.61 96.5618 29.61ZM124.691 15.09C124.691 14.03 124.441 13.19 123.941 12.57C123.461 11.93 122.781 11.61 121.901 11.61C121.861 11.61 121.841 11.55 121.841 11.43C121.841 11.31 121.861 11.25 121.901 11.25C122.401 11.25 122.911 11.27 123.431 11.31C123.971 11.33 124.551 11.34 125.171 11.34C125.711 11.34 126.241 11.33 126.761 11.31C127.281 11.27 127.761 11.25 128.201 11.25C128.241 11.25 128.261 11.31 128.261 11.43C128.261 11.55 128.241 11.61 128.201 11.61C127.401 11.61 126.781 11.93 126.341 12.57C125.921 13.19 125.711 14.03 125.711 15.09V23.43C125.711 24.85 125.401 26.09 124.781 27.15C124.161 28.19 123.291 29 122.171 29.58C121.051 30.14 119.741 30.42 118.241 30.42C116.781 30.42 115.471 30.14 114.311 29.58C113.171 29.02 112.271 28.22 111.611 27.18C110.971 26.12 110.651 24.85 110.651 23.37V13.68C110.651 13.1 110.601 12.67 110.501 12.39C110.401 12.09 110.191 11.89 109.871 11.79C109.571 11.67 109.121 11.61 108.521 11.61C108.461 11.61 108.431 11.55 108.431 11.43C108.431 11.31 108.461 11.25 108.521 11.25C109.041 11.25 109.621 11.27 110.261 11.31C110.901 11.33 111.581 11.34 112.301 11.34C113.061 11.34 113.761 11.33 114.401 11.31C115.041 11.27 115.611 11.25 116.111 11.25C116.171 11.25 116.201 11.31 116.201 11.43C116.201 11.55 116.171 11.61 116.111 11.61C115.511 11.61 115.061 11.67 114.761 11.79C114.461 11.91 114.251 12.12 114.131 12.42C114.031 12.72 113.981 13.16 113.981 13.74V22.32C113.981 24.78 114.471 26.56 115.451 27.66C116.431 28.76 117.741 29.31 119.381 29.31C121.041 29.31 122.341 28.81 123.281 27.81C124.221 26.79 124.691 25.34 124.691 23.46V15.09ZM133.788 21.03L134.238 20.19H140.418L140.628 21.03H133.788ZM148.758 29.64C148.858 29.64 148.908 29.7 148.908 29.82C148.908 29.94 148.858 30 148.758 30C148.158 30 147.528 29.98 146.868 29.94C146.228 29.9 145.608 29.88 145.008 29.88C144.328 29.88 143.738 29.9 143.238 29.94C142.738 29.98 142.178 30 141.558 30C141.478 30 141.438 29.94 141.438 29.82C141.438 29.7 141.478 29.64 141.558 29.64C142.378 29.64 142.848 29.48 142.968 29.16C143.108 28.82 142.928 28.16 142.428 27.18L136.338 15.15L137.808 12.57L131.838 25.74C131.298 26.94 131.288 27.89 131.808 28.59C132.328 29.29 133.148 29.64 134.268 29.64C134.368 29.64 134.418 29.7 134.418 29.82C134.418 29.94 134.368 30 134.268 30C133.668 30 133.118 29.98 132.618 29.94C132.118 29.9 131.488 29.88 130.728 29.88C129.948 29.88 129.318 29.9 128.838 29.94C128.378 29.98 127.808 30 127.128 30C127.048 30 127.008 29.94 127.008 29.82C127.008 29.7 127.048 29.64 127.128 29.64C127.668 29.64 128.128 29.53 128.508 29.31C128.908 29.07 129.298 28.65 129.678 28.05C130.078 27.43 130.528 26.56 131.028 25.44L137.538 11.13C137.558 11.07 137.648 11.04 137.808 11.04C137.968 11.02 138.058 11.05 138.078 11.13L145.578 25.89C146.058 26.83 146.468 27.58 146.808 28.14C147.168 28.68 147.498 29.07 147.798 29.31C148.118 29.53 148.438 29.64 148.758 29.64Z" fill="#FDF9ED"/>
<rect y="5" width="30" height="30" fill="#FDF9ED"/>
<path d="M10.54 20.03L10.99 19.19H17.17L17.38 20.03H10.54ZM25.51 28.64C25.61 28.64 25.66 28.7 25.66 28.82C25.66 28.94 25.61 29 25.51 29C24.91 29 24.28 28.98 23.62 28.94C22.98 28.9 22.36 28.88 21.76 28.88C21.08 28.88 20.49 28.9 19.99 28.94C19.49 28.98 18.93 29 18.31 29C18.23 29 18.19 28.94 18.19 28.82C18.19 28.7 18.23 28.64 18.31 28.64C19.13 28.64 19.6 28.48 19.72 28.16C19.86 27.82 19.68 27.16 19.18 26.18L13.09 14.15L14.56 11.57L8.59 24.74C8.05 25.94 8.04 26.89 8.56 27.59C9.08 28.29 9.9 28.64 11.02 28.64C11.12 28.64 11.17 28.7 11.17 28.82C11.17 28.94 11.12 29 11.02 29C10.42 29 9.87 28.98 9.37 28.94C8.87 28.9 8.24 28.88 7.48 28.88C6.7 28.88 6.07 28.9 5.59 28.94C5.13 28.98 4.56 29 3.88 29C3.8 29 3.76 28.94 3.76 28.82C3.76 28.7 3.8 28.64 3.88 28.64C4.42 28.64 4.88 28.53 5.26 28.31C5.66 28.07 6.05 27.65 6.43 27.05C6.83 26.43 7.28 25.56 7.78 24.44L14.29 10.13C14.31 10.07 14.4 10.04 14.56 10.04C14.72 10.02 14.81 10.05 14.83 10.13L22.33 24.89C22.81 25.83 23.22 26.58 23.56 27.14C23.92 27.68 24.25 28.07 24.55 28.31C24.87 28.53 25.19 28.64 25.51 28.64Z" fill="#3E1B0B"/>
</svg>
